<?xml version="1.0" standalone="no"?><!DOCTYPE svg PUBLIC "-//W3C//DTD SVG 1.1//EN" "http://www.w3.org/Graphics/SVG/1.1/DTD/svg11.dtd"><svg t="1751944680803" class="icon" viewBox="0 0 1024 1024" version="1.1" xmlns="http://www.w3.org/2000/svg" p-id="10491" xmlns:xlink="http://www.w3.org/1999/xlink" width="200" height="200"><path d="M814.072 340.669h-27.541l28.204-23.821c3.857-3.541 6.028-8.289 6.028-13.306 0-4.964-2.171-9.766-6.028-13.253L610.737 104.896c-8.069-7.323-21.156-7.323-29.198 0l-50.155 44.929-114.429-48.201c-9.887-5.15-22.443-2.065-28.148 6.839L235.708 340.669c10.279-0.438 14.941-0.233 20.73 0H208.165c-56.956 0-110.161 25.94-110.161 77.687v391.58c0 51.775 46.321 93.889 103.277 93.889h619.701c56.928 0 103.28-42.114 103.28-93.889v-391.58c0.001-51.748-53.234-77.687-110.19-77.687zM596.111 144.704l174.777 158.839-39.441 37.125H373.415l222.696-195.964z m-181.909-1.233l78.353 41.134-174.221 156.064h-27.543l123.411-197.198z m473.3 678.021c0 30.318-28.146 40.729-62.742 40.729H197.478c-34.595 0-62.739-10.41-62.739-40.729V422.997c0-30.287 28.144-40.721 62.739-40.721h627.28c34.595 0 62.741 10.434 62.741 40.721v398.496h0.002v-0.001z" fill="#09B6BA" p-id="10492"></path><path d="M690.328 501.195c-53.156 0-96.393 42.171-96.393 94s43.237 94 96.393 94c53.126 0 96.394-42.171 96.394-94s-43.268-94-96.394-94z m-0.026 157.004c-35.469 0-64.366-28.086-64.366-62.597 0-34.549 28.897-62.657 64.366-62.657 35.468 0 64.367 28.076 64.367 62.657-0.002 34.511-28.9 62.597-64.367 62.597z" fill="#09B6BA" p-id="10493"></path></svg>