<?xml version="1.0" standalone="no"?><!DOCTYPE svg PUBLIC "-//W3C//DTD SVG 1.1//EN" "http://www.w3.org/Graphics/SVG/1.1/DTD/svg11.dtd"><svg t="1751944639783" class="icon" viewBox="0 0 1024 1024" version="1.1" xmlns="http://www.w3.org/2000/svg" p-id="8641" xmlns:xlink="http://www.w3.org/1999/xlink" width="200" height="200"><path d="M391.967 609.722c-18.145-18.801-34.104-40.663-67.334-39.351-63.398 2.623-127.016 1.311-190.415 0.437-22.736-0.437-43.504 4.59-42.63 28.639s22.08 28.857 44.38 28.42c38.476-0.875 77.171-0.219 115.866-0.219v-0.437c42.412 0 84.605 0.219 127.016 0 11.368 0 27.983-1.749 13.117-17.49m-259.279-205.28c40.007-0.219 80.232-3.498 119.583 0.874 48.533 5.247 83.95-11.15 115.867-57.059-82.637 0-159.371 0.437-236.106-0.218-20.987-0.219-40.662 3.279-39.788 27.108s19.457 29.295 40.444 29.295m-11.587 106.685c24.923-0.875 49.845-0.22 74.767-0.22 22.518 0 45.035 1.094 67.334-0.436 11.368-0.875 30.388 8.744 31.044-14.866 0.218-17.052-4.373-34.542-23.83-36.946-51.812-6.122-104.28-6.778-156.31 0.437-12.461 1.749-26.89 12.024-22.518 29.076 3.498 13.117 12.461 23.392 29.513 22.736" fill="#E47C29" p-id="8642"></path><path d="M929.545 387.826c-18.8-42.63-54.654-22.518-84.604-24.267s-57.278 30.607-81.326 9.4c-20.768-18.363-32.792-48.97-42.193-76.296-12.242-35.198-40.662-60.12-63.18-97.066 80.014 30.825 128.11 2.186 151.283-35.635 26.89-43.723 19.457-101-16.834-134.449S700.217-9.619 659.335 17.271c-52.468 34.323-59.9 78.264-24.485 165.492-56.84-17.926-103.843-44.816-153.906-64.71-19.894-7.87-38.913-27.546-62.087-17.927-61.212 25.141-122.425 50.938-182.107 79.795-36.728 17.708-44.598 43.068-29.076 71.488 12.68 23.173 44.597 30.388 76.078 16.834 26.89-11.806 53.998-23.392 79.795-37.384 43.286-23.173 82.637-23.61 124.83 5.903 27.546 19.02 23.61 30.825 3.28 50.063-46.129 43.723-95.099 84.386-133.575 135.542-28.202 37.602-26.89 76.297 6.995 108.653 41.538 39.788 85.042 77.609 127.454 116.74 13.117 12.243 24.485 24.486-6.121 30.17-41.319 7.652-81.982 18.801-123.081 27.108-29.95 6.122-54.655 34.105-49.408 58.59 6.121 28.857 41.975 47.44 72.8 40.225 81.325-19.238 162.65-38.258 244.631-55.31 41.975-8.745 61.432-50.719 36.29-84.386s-48.75-61.431-71.487-93.35c-53.124-74.766-52.905-74.985 14.21-140.57 37.82-36.727 37.384-36.509 66.022 11.368 12.462 20.769 23.174 46.129 53.999 43.724 60.557-4.81 119.364-20.55 177.735-36.072 22.08-6.121 30.825-39.57 21.424-61.431m-305.844 376.02c-29.295 21.643-70.176 9.4-103.624 28.42a71.269 71.269 0 0 0-24.267 21.643c-29.076 43.942-55.747 89.415-84.386 133.575-17.052 26.016-10.493 48.752 10.931 64.71s50.72 16.834 69.083-8.088c51.593-69.739 101.875-140.79 152.157-211.62 13.991-19.676 1.749-26.016-19.894-28.64" fill="#1BA4C8" p-id="8643"></path></svg>